<svg width="1000" height="1000" viewBox="0 0 1000 1000" fill="none" xmlns="http://www.w3.org/2000/svg">
<rect width="1000" height="1000" fill="#0085FF"/>
<path d="M56.457 690L121.457 365H228.457C250.124 365 269.624 367.833 286.957 373.5C304.29 378.833 317.957 387.833 327.957 400.5C338.29 413.167 343.457 430 343.457 451C343.457 481.333 335.957 505.833 320.957 524.5C306.29 543.167 287.624 556.833 264.957 565.5L313.457 690H229.457L191.957 578H158.457L136.457 690H56.457ZM171.457 515H200.457C222.124 515 238.124 510.167 248.457 500.5C259.124 490.833 264.457 478.333 264.457 463C264.457 451 260.29 442.167 251.957 436.5C243.957 430.833 232.457 428 217.457 428H188.457L171.457 515ZM362.609 690L427.609 365H504.609L549.609 519L565.609 592H567.609C569.276 574.333 570.776 554.333 572.109 532C573.776 509.333 576.609 488.333 580.609 469L601.609 365H677.609L612.609 690H535.609L490.609 536L475.609 463H473.609C472.276 481.333 470.609 501.333 468.609 523C466.609 544.667 463.609 565.333 459.609 585L438.609 690H362.609ZM808.781 518L791.781 556H851.781L850.781 518C850.448 502.333 849.948 487 849.281 472C848.948 457 848.781 441.333 848.781 425H846.781C840.448 441 834.281 456.667 828.281 472C822.281 487 815.781 502.333 808.781 518ZM642.781 690L812.781 365H908.781L939.781 690H855.781L853.781 616H764.281L730.781 690H642.781Z" fill="white"/>
</svg>
